<?xml version="1.0" standalone="no"?>
<!DOCTYPE svg PUBLIC "-//W3C//DTD SVG 20010904//EN"
 "http://www.w3.org/TR/2001/REC-SVG-20010904/DTD/svg10.dtd">
<svg version="1.0" xmlns="http://www.w3.org/2000/svg"
 width="1280.000000pt" height="840.000000pt" viewBox="0 0 1280.000000 840.000000"
 preserveAspectRatio="xMidYMid meet">
<g transform="translate(0.000000,840.000000) scale(0.100000,-0.100000)"
fill="#000000" stroke="none">
<path d="M6385 8384 c-336 -30 -494 -55 -740 -114 -726 -176 -1382 -540 -1924
-1065 -574 -557 -987 -1286 -1160 -2049 -80 -351 -105 -578 -105 -956 0 -307
12 -459 55 -710 151 -877 573 -1676 1210 -2295 542 -525 1199 -889 1924 -1064
266 -65 421 -88 776 -117 206 -17 225 -17 435 0 328 26 531 56 774 115 1020
245 1922 880 2508 1767 591 895 815 2002 621 3059 -244 1325 -1098 2442 -2314
3025 -481 232 -921 347 -1520 400 -248 22 -339 23 -540 4z m570 -194 c966 -87
1802 -467 2478 -1129 952 -931 1375 -2247 1145 -3561 -167 -959 -697 -1840
-1473 -2451 -837 -658 -1911 -954 -2975 -818 -688 87 -1352 359 -1905 779
-1209 918 -1794 2429 -1519 3920 199 1075 835 2027 1754 2625 555 362 1166
571 1850 634 126 12 519 12 645 1z"/>
<path d="M6505 7703 c-1272 -52 -2435 -805 -3008 -1949 -164 -327 -285 -712
-336 -1069 -53 -372 -53 -667 0 -1040 147 -1031 765 -1961 1668 -2510 751
-457 1664 -615 2538 -440 1292 259 2344 1235 2702 2505 52 186 83 340 113 570
17 130 17 653 0 790 -83 659 -300 1207 -678 1717 -628 847 -1581 1359 -2644
1423 -158 9 -196 10 -355 3z m456 -198 c672 -64 1274 -306 1799 -723 130 -104
418 -393 524 -527 622 -786 862 -1792 660 -2772 -208 -1015 -892 -1889 -1829
-2339 -338 -162 -668 -259 -1061 -310 -182 -24 -589 -24 -779 0 -988 124
-1831 637 -2387 1451 -295 432 -476 911 -554 1465 -25 177 -25 652 0 830 90
646 323 1194 722 1695 113 141 358 386 499 499 550 438 1183 686 1885 739 123
9 383 5 521 -8z"/>
<path d="M11280 7665 c-63 -20 -114 -66 -146 -132 -26 -52 -28 -68 -35 -227
-4 -94 -8 -427 -10 -741 -3 -536 -1 -579 18 -715 80 -551 226 -855 452 -941
41 -15 47 -22 59 -60 7 -24 17 -120 23 -214 18 -276 -3 -708 -76 -1635 -90
-1137 -89 -1115 -90 -1425 0 -329 2 -341 90 -424 161 -152 434 -184 650 -76
50 25 108 59 129 76 101 84 99 180 -34 1664 -99 1113 -114 1691 -49 1943 23
91 41 122 73 122 13 0 55 16 94 35 164 82 277 281 327 575 24 140 44 408 36
495 -4 44 -3 366 2 715 l10 635 -22 89 c-27 108 -49 153 -95 193 -99 88 -245
62 -318 -57 -57 -94 -59 -112 -68 -775 -5 -335 -12 -620 -15 -632 -7 -30 -50
-41 -84 -22 l-26 15 -5 669 c-4 484 -9 679 -17 704 -50 139 -193 198 -322 131
-48 -24 -85 -70 -114 -142 -22 -53 -22 -58 -22 -708 0 -360 -4 -661 -8 -667
-11 -18 -52 -16 -67 2 -10 12 -12 158 -9 683 l4 667 -28 58 c-56 113 -178 162
-307 122z m119 -209 c8 -10 11 -199 11 -694 -1 -665 0 -682 20 -721 38 -76
126 -121 236 -121 101 0 178 41 214 115 20 42 21 54 20 706 -1 674 1 729 35
729 8 0 17 -5 20 -11 4 -6 6 -311 6 -679 -2 -648 -1 -670 18 -708 22 -43 82
-101 133 -129 25 -13 56 -18 124 -18 83 0 94 2 140 30 27 17 63 51 81 77 40
61 41 72 49 781 4 438 9 559 20 598 8 27 19 49 24 49 4 0 14 -17 21 -37 11
-30 13 -205 11 -858 -1 -451 -5 -849 -8 -885 -20 -237 -83 -433 -169 -529 -36
-39 -80 -63 -155 -82 -62 -16 -130 -85 -159 -163 -51 -138 -71 -319 -71 -646
0 -390 19 -689 105 -1670 71 -810 85 -998 85 -1152 0 -143 1 -141 -98 -190
-70 -34 -224 -38 -306 -8 -33 13 -74 37 -93 54 -33 31 -34 32 -40 136 -9 162
13 527 82 1380 80 990 99 1349 92 1702 -9 437 -47 546 -205 588 -151 39 -279
355 -338 830 -15 119 -16 213 -10 804 8 737 8 736 64 736 16 0 35 -6 41 -14z"/>
<path d="M770 7405 c-100 -16 -235 -57 -305 -93 -178 -90 -337 -253 -394 -408
-42 -111 -77 -416 -68 -581 33 -559 100 -1000 204 -1343 91 -300 192 -469 322
-539 70 -37 74 -45 92 -211 13 -118 7 -675 -11 -925 -5 -82 -15 -220 -20 -305
-6 -85 -29 -384 -50 -665 -60 -780 -73 -1001 -74 -1240 -1 -274 7 -318 72
-387 100 -107 262 -152 465 -129 80 9 117 19 172 45 87 43 163 93 187 126 54
75 48 297 -37 1261 -89 998 -102 1187 -114 1594 -13 421 7 696 56 792 14 28
31 40 77 59 33 12 75 36 95 52 250 201 405 924 388 1812 -7 384 -26 522 -92
666 -79 174 -219 295 -422 367 -157 56 -386 78 -543 52z m363 -216 c251 -50
404 -183 451 -391 67 -294 56 -978 -25 -1453 -73 -435 -182 -676 -321 -712
-184 -49 -248 -308 -234 -953 8 -399 25 -650 115 -1670 60 -676 71 -830 71
-991 0 -165 4 -157 -90 -205 -47 -24 -69 -29 -154 -32 -120 -5 -191 9 -237 47
l-34 29 -3 168 c-5 241 7 448 83 1439 69 905 90 1354 75 1665 -15 329 -50 424
-176 480 -46 21 -71 40 -94 72 -166 227 -306 856 -339 1518 -10 203 -1 457 20
560 17 85 66 167 147 247 172 172 455 241 745 182z"/>
<path d="M904 6981 c-34 -15 -64 -61 -64 -97 0 -50 19 -82 60 -101 l37 -18 7
-445 c3 -245 9 -599 12 -786 l7 -342 -38 -17 c-73 -35 -85 -128 -23 -180 30
-25 37 -27 112 -23 104 4 175 36 258 115 132 126 217 300 270 551 20 94 23
136 23 342 0 189 -4 252 -18 320 -59 275 -143 449 -276 572 -88 82 -154 111
-260 115 -47 2 -96 -1 -107 -6z"/>
</g>
</svg>
