<svg width="1280" height="840" xmlns="http://www.w3.org/2000/svg" preserveAspectRatio="xMidYMid meet">

 <g>
  <title>background</title>
  <rect fill="none" id="canvas_background" height="402" width="582" y="-1" x="-1"/>
 </g>
 <g>
  <title>Layer 1</title>
  <path fill="#ffffff" id="svg_2" d="m638.50001,1.599988c-33.600001,3 -49.400001,5.5 -74.000001,11.4c-72.600001,17.6 -138.200002,54.000001 -192.400003,106.500002c-57.400001,55.700001 -98.700001,128.600002 -116.000002,204.900003c-8,35.100001 -10.5,57.800001 -10.5,95.600001c0,30.7 1.2,45.900001 5.5,71.000001c15.1,87.700001 57.300001,167.600002 121.000002,229.500003c54.200001,52.500001 119.900002,88.900001 192.400003,106.400002c26.6,6.5 42.100001,8.8 77.600001,11.7c20.6,1.7 22.5,1.7 43.500001,0c32.8,-2.6 53.100001,-5.6 77.400001,-11.5c102.000002,-24.5 192.200003,-88.000001 250.800004,-176.700003c59.100001,-89.500001 81.500001,-200.200003 62.100001,-305.900005c-24.4,-132.500002 -109.800002,-244.200004 -231.400003,-302.500005c-48.100001,-23.2 -92.100001,-34.700001 -152.000002,-40.000001c-24.8,-2.2 -33.900001,-2.3 -54.000001,-0.4zm57.000001,19.4c96.600001,8.7 180.200003,46.700001 247.800004,112.900002c95.200001,93.100001 137.500002,224.700003 114.500002,356.100005c-16.7,95.900001 -69.700001,184.000003 -147.300002,245.100004c-83.700001,65.800001 -191.100003,95.400001 -297.500004,81.800001c-68.800001,-8.7 -135.200002,-35.900001 -190.500003,-77.900001c-120.900002,-91.800001 -179.400003,-242.900004 -151.900002,-392.000006c19.9,-107.500002 83.500001,-202.700003 175.400003,-262.500004c55.500001,-36.200001 116.600002,-57.100001 185.000003,-63.400001c12.6,-1.2 51.900001,-1.2 64.500001,-0.1z"/>
  <path fill="#ffffff" id="svg_3" d="m650.50001,69.69999c-127.2,5.2 -243.5,80.5 -300.8,194.9c-16.40001,32.7 -28.50001,71.2 -33.60001,106.9c-5.3,37.2 -5.3,66.7 0,104c14.7,103.10001 76.50001,196.10001 166.80001,251.00001c75.1,45.7 166.4,61.5 253.8,44c129.2,-25.9 234.4,-123.5 270.20001,-250.5c5.2,-18.60001 8.3,-34.00001 11.3,-57.00001c1.7,-13 1.7,-65.3 0,-79c-8.3,-65.9 -30.00001,-120.7 -67.80001,-171.7c-62.8,-84.7 -158.1,-135.9 -264.4,-142.3c-15.8,-0.9 -19.6,-1 -35.5,-0.3zm45.6,19.8c67.2,6.4 127.4,30.6 179.9,72.3c13,10.4 41.8,39.3 52.4,52.7c62.2,78.6 86.20001,179.2 66,277.2c-20.8,101.50001 -89.2,188.90001 -182.9,233.90001c-33.8,16.2 -66.8,25.9 -106.1,31c-18.2,2.4 -58.9,2.4 -77.9,0c-98.8,-12.4 -183.1,-63.7 -238.7,-145.1c-29.5,-43.2 -47.6,-91.1 -55.40001,-146.50001c-2.5,-17.7 -2.5,-65.2 0,-83c9.00001,-64.6 32.30001,-119.4 72.20001,-169.5c11.3,-14.1 35.8,-38.6 49.9,-49.9c55,-43.8 118.3,-68.6 188.5,-73.9c12.3,-0.9 38.3,-0.5 52.1,0.8z"/>
  <path fill="#ffffff" id="svg_4" d="m1128.000017,73.499989c-6.3,2 -11.4,6.6 -14.6,13.2c-2.6,5.2 -2.8,6.8 -3.5,22.7c-0.4,9.4 -0.8,42.700001 -1,74.100001c-0.3,53.600001 -0.1,57.900001 1.8,71.500001c8,55.100001 22.6,85.500001 45.200001,94.100001c4.1,1.5 4.7,2.2 5.9,6c0.7,2.4 1.7,12 2.3,21.4c1.8,27.6 -0.3,70.800001 -7.6,163.500002c-9,113.700002 -8.9,111.500002 -9,142.500002c0,32.9 0.2,34.100001 9,42.400001c16.1,15.2 43.400001,18.4 65.000001,7.6c5,-2.5 10.8,-5.9 12.9,-7.6c10.1,-8.4 9.9,-18 -3.4,-166.400002c-9.9,-111.300002 -11.4,-169.100003 -4.9,-194.300003c2.3,-9.1 4.1,-12.2 7.3,-12.2c1.3,0 5.5,-1.6 9.4,-3.5c16.4,-8.2 27.7,-28.1 32.7,-57.500001c2.4,-14 4.4,-40.800001 3.6,-49.500001c-0.4,-4.4 -0.3,-36.600001 0.2,-71.500001l1,-63.500001l-2.2,-8.9c-2.7,-10.8 -4.9,-15.3 -9.5,-19.3c-9.9,-8.8 -24.5,-6.2 -31.8,5.7c-5.7,9.4 -5.9,11.2 -6.8,77.500001c-0.5,33.5 -1.2,62.000001 -1.5,63.200001c-0.7,3 -5,4.1 -8.4,2.2l-2.6,-1.5l-0.5,-66.900001c-0.4,-48.400001 -0.9,-67.900001 -1.7,-70.400001c-5,-13.9 -19.3,-19.8 -32.2,-13.1c-4.8,2.4 -8.5,7 -11.4,14.2c-2.2,5.3 -2.2,5.8 -2.2,70.800001c0,36.000001 -0.4,66.100001 -0.8,66.700001c-1.1,1.8 -5.2,1.6 -6.7,-0.2c-1,-1.2 -1.2,-15.8 -0.9,-68.300001l0.4,-66.700001l-2.8,-5.8c-5.6,-11.3 -17.8,-16.2 -30.7,-12.2zm11.9,20.9c0.8,1 1.1,19.9 1.1,69.400001c-0.1,66.500001 0,68.200001 2,72.100001c3.8,7.6 12.6,12.1 23.6,12.1c10.1,0 17.8,-4.1 21.4,-11.5c2,-4.2 2.1,-5.4 2,-70.600001c-0.1,-67.400001 0.1,-72.900001 3.5,-72.900001c0.8,0 1.7,0.5 2,1.1c0.4,0.6 0.6,31.1 0.6,67.900001c-0.2,64.800001 -0.1,67.000001 1.8,70.800001c2.2,4.3 8.2,10.1 13.3,12.9c2.5,1.3 5.6,1.8 12.4,1.8c8.3,0 9.4,-0.2 14,-3c2.7,-1.7 6.3,-5.1 8.1,-7.7c4,-6.1 4.1,-7.2 4.9,-78.100001c0.4,-43.800001 0.9,-55.900001 2,-59.800001c0.8,-2.7 1.9,-4.9 2.4,-4.9c0.4,0 1.4,1.7 2.1,3.7c1.1,3 1.3,20.5 1.1,85.800001c-0.1,45.100001 -0.5,84.900001 -0.8,88.500001c-2,23.7 -8.3,43.300001 -16.9,52.900001c-3.6,3.9 -8,6.3 -15.5,8.2c-6.2,1.6 -13,8.5 -15.9,16.3c-5.1,13.8 -7.1,31.9 -7.1,64.600001c0,39.000001 1.9,68.900001 10.5,167.000002c7.1,81.000001 8.5,99.800001 8.5,115.200002c0,14.3 0.1,14.1 -9.8,19c-7,3.4 -22.4,3.8 -30.6,0.8c-3.3,-1.3 -7.4,-3.7 -9.3,-5.4c-3.3,-3.1 -3.4,-3.2 -4,-13.6c-0.9,-16.2 1.3,-52.700001 8.2,-138.000002c8,-99.000001 9.9,-134.900002 9.2,-170.200003c-0.9,-43.700001 -4.7,-54.600001 -20.5,-58.800001c-15.1,-3.9 -27.9,-35.500001 -33.800001,-83.000001c-1.5,-11.9 -1.6,-21.3 -1,-80.400001c0.8,-73.700001 0.8,-73.600001 6.4,-73.600001c1.6,0 3.5,0.6 4.1,1.4z"/>
  <path fill="#ffffff" id="svg_5" d="m77.000001,99.499989c-10,1.6 -23.5,5.7 -30.5,9.3c-17.8,9 -33.700001,25.3 -39.400001,40.800001c-4.2,11.1 -7.7,41.600001 -6.8,58.100001c3.3,55.900001 10,100.000001 20.4,134.300002c9.1,30 19.2,46.900001 32.2,53.900001c7,3.7 7.4,4.5 9.2,21.1c1.3,11.8 0.7,67.500001 -1.1,92.500001c-0.5,8.2 -1.5,22 -2,30.5c-0.6,8.5 -2.9,38.400001 -5,66.500001c-6,78.000001 -7.3,100.100001 -7.4,124.000002c-0.1,27.4 0.7,31.8 7.2,38.700001c10,10.7 26.2,15.2 46.500001,12.9c8,-0.9 11.7,-1.9 17.2,-4.5c8.7,-4.3 16.3,-9.3 18.7,-12.6c5.4,-7.5 4.8,-29.7 -3.7,-126.100002c-8.9,-99.800001 -10.2,-118.700002 -11.4,-159.400002c-1.3,-42.100001 0.7,-69.600001 5.6,-79.200001c1.4,-2.8 3.1,-4 7.7,-5.9c3.3,-1.2 7.5,-3.6 9.5,-5.2c25,-20.1 40.500001,-92.400001 38.800001,-181.200003c-0.7,-38.400001 -2.6,-52.200001 -9.2,-66.600001c-7.9,-17.4 -21.9,-29.5 -42.200001,-36.700001c-15.7,-5.6 -38.600001,-7.8 -54.300001,-5.2zm36.300001,21.6c25.1,5 40.400001,18.3 45.100001,39.100001c6.7,29.4 5.6,97.800001 -2.5,145.300002c-7.3,43.500001 -18.2,67.600001 -32.1,71.200001c-18.4,4.9 -24.8,30.8 -23.4,95.300001c0.8,39.900001 2.5,65.000001 11.5,167.000002c6,67.600001 7.1,83.000001 7.1,99.100001c0,16.5 0.4,15.7 -9,20.5c-4.7,2.4 -6.9,2.9 -15.4,3.2c-12,0.5 -19.1,-0.9 -23.7,-4.7l-3.4,-2.9l-0.3,-16.8c-0.5,-24.1 0.7,-44.800001 8.3,-143.900002c6.9,-90.500001 9,-135.400002 7.5,-166.500002c-1.5,-32.9 -5,-42.400001 -17.6,-48.000001c-4.6,-2.1 -7.1,-4 -9.4,-7.2c-16.6,-22.7 -30.6,-85.600001 -33.900001,-151.800002c-1,-20.3 -0.1,-45.700001 2,-56.000001c1.7,-8.5 6.6,-16.7 14.7,-24.7c17.2,-17.2 45.500001,-24.1 74.500001,-18.2z"/>
  <path fill="#ffffff" id="svg_6" d="m90.400001,141.89999c-3.4,1.5 -6.4,6.1 -6.4,9.7c0,5 1.9,8.2 6,10.1l3.7,1.8l0.7,44.500001c0.3,24.5 0.9,59.900001 1.2,78.600001l0.7,34.200001l-3.8,1.7c-7.3,3.5 -8.5,12.8 -2.3,18c3,2.5 3.7,2.7 11.2,2.3c10.4,-0.4 17.5,-3.6 25.8,-11.5c13.2,-12.6 21.7,-30 27,-55.100001c2,-9.4 2.3,-13.6 2.3,-34.200001c0,-18.9 -0.4,-25.2 -1.8,-32c-5.9,-27.5 -14.3,-44.900001 -27.6,-57.200001c-8.8,-8.2 -15.4,-11.1 -26,-11.5c-4.7,-0.2 -9.6,0.1 -10.7,0.6z"/>
  <rect stroke="#ffffff" style="vector-effect: non-scaling-stroke;" transform="translate(-892.5094604492188,-173.38189697265625) scale(-0.07427532970905304,1) translate(-1.7451711893081665,-31.41818618774414) " id="svg_7" height="750.545788" width="1284.655116" y="31.418187" x="1.745171" opacity="0.5" stroke-width="1.5" fill="#ffffff"/>
  <rect id="svg_8" height="1.163637" width="0" y="225.745546" x="1248.00027" stroke-width="1.5" stroke="#ffffff" fill="#ffffff"/>
 </g>
</svg>